<?xml version="1.0" encoding="UTF-8"?>
<svg id="Layer_1" xmlns="http://www.w3.org/2000/svg" version="1.1" viewBox="0 0 237.06 841.89">
  <!-- Generator: Adobe Illustrator 30.0.0, SVG Export Plug-In . SVG Version: 2.1.1 Build 123)  -->
  <defs>
    <style>
      .st0 {
        fill: #aa6faf;
      }

      .st1 {
        fill: #a96faf;
      }

      .st2 {
        fill: #eeedef;
      }

      .st3 {
        fill: #652b7f;
      }

      .st4 {
        fill: #efeff0;
      }
    </style>
  </defs>
  <path class="st1" d="M113.23,0l19.64,2.71c.75.59.14.59-.28.98-1.83,1.7-5.86,4.37-8.08,5.92-30.47,21.27-61.09,42.7-91.5,63.93-1.21.84-2.95,1.63-4.31,2.58-6.88,4.8-13.79,9.57-20.56,14.54-.83.17-.51-.18-.71-.53-2.28-3.89-4.08-8.53-6.25-12.57-.31-.58-.16-1.32-1.18-1.1V0h113.23Z"/>
  <path class="st0" d="M188.43,713.62c.08.06-.34.75.59.87,7,.91,14.99-.49,21.97-.45.22,0,.84.41,1.44.42,2.43.02,4.93-.19,7.33.21-6.07,4.69-11.94,9.69-17.96,14.42-22.85,17.94-46.1,35.42-68.95,53.36l-1.18,45.59,33.77,13.86h-72.28c3.49-2.47,29.72-12.44,30.61-14.3.28-.58.27-1.15.32-1.77.78-8.74-.15-19.43-.04-28.45.06-5.08,1.13-10.77.46-15.88-.08-.58-.11-1.07-.61-1.48l-34.51-29c-.87-.38-.92-1.42-1.25-1.89-.12-1.51,1.63-3.29.42-4.6,1.97-7.33.9-15.03,5.45-21.1.32-.42.31-1.22.49-1.37.12-.1,2.76-.86,3.07-.9,1.3-.18,2.85.23,4.06-.11,1.99-.57,8.66-6.54,11.81-6.99,10.23-.06,20.46,0,30.69-.02,6.4-.02,12.82-.01,19.22,0,7.72.01,15.49.17,23.21.02.7-.01,1.78-.5,1.86-.44Z"/>
  <path class="st3" d="M124.51,9.61l103.2,61.71-32.21,300.31c12.84,65.27,28.18,130.2,40.5,195.49l-20,117.25c-.42-1.77-.06-3.54-1.95-4.55-1.01-.54-5.35.33-6.76.64-3.98.87-8.07,2.37-12.16,3.3-3.85.87-7.82,1.51-11.69,2.27-.76-3.19.06-5.32-2.11-8.14-3.03-3.93-9.52-4.58-12.7-.59-.56.7-1.16,3.08-2.1,2.87-2.07-2.61-5.49-4.66-7.55-7.08-6.63-7.79-7.56-15.24-9.16-24.68-.84-4.96-4.18-11.38-4.79-16.52-.45-3.79.52-2.79,2.27-4.34.76-.68,5.02-4.48,5.15-4.88.11-.32.07-.65.06-.98-1.62-.68-3.23.64-4.04.78-2.06.35-.21-3.42.35-4.26.42-.63,5.5-5.17,3.03-5.69-1.34-.28-2.85,1.79-3.73,2.49-7.92,6.33-8.57,12.15-8.59,21.94-.02,8.8,1.23,26.68,5.13,34.57.69,1.4,2.91,3.51,3.85,4.92,3.63,5.44,7.18,10.93,10.75,16.41.87,1.33,4.92,5.3,3.9,6.96-.86,1.39-3.05,1.79-3.77,4.59-1.37,5.31,3.59,4.84,3.98,9.62-6.4-.01-12.82-.02-19.22,0-2.82-3.4-7-5.64-10.23-8.37-4.84-4.09-9.53-9.05-14.42-13.16-5.51-4.63-17.1-14.4-23.73-15.96-4.49-1.06-11.11-1.95-15.8-2.58-9.11-1.22-19.86-2.47-28.99-2.97.06-1.73-.09-3.49,0-5.22,1.86-32.73,5.82-65.42,7.09-98.19l-23.41-177.97c4.3-101.13,9.58-202.21,14.25-303.38l-.45-1.22-15.45-11.5c30.41-21.22,61.03-42.65,91.5-63.93Z"/>
  <path class="st2" d="M163.36,714.04c-.39-4.78-5.35-4.31-3.98-9.62.72-2.79,2.91-3.2,3.77-4.59,1.03-1.66-3.03-5.63-3.9-6.96-3.57-5.48-7.12-10.96-10.75-16.41-.94-1.41-3.16-3.52-3.85-4.92-3.9-7.89-5.14-25.77-5.13-34.57.02-9.79.67-15.62,8.59-21.94.88-.7,2.39-2.78,3.73-2.49,2.47.52-2.61,5.06-3.03,5.69-.56.84-2.4,4.61-.35,4.26.81-.14,2.41-1.46,4.04-.78.01.33.04.66-.06.98-.13.39-4.39,4.2-5.15,4.88-1.75,1.56-2.72.56-2.27,4.34.61,5.14,3.95,11.56,4.79,16.52,1.61,9.44,2.54,16.89,9.16,24.68,2.06,2.42,5.48,4.48,7.55,7.08.94.21,1.54-2.17,2.1-2.87,3.19-3.99,9.67-3.34,12.7.59,2.17,2.81,1.35,4.95,2.11,8.14,3.87-.76,7.84-1.4,11.69-2.27,4.09-.93,8.18-2.43,12.16-3.3,1.41-.31,5.75-1.18,6.76-.64,1.89,1.01,1.53,2.78,1.95,4.55.73,3.07,1.45,6.48,1.9,9.6.25,1.72.52,1.93.62,2.38.49,2.23.47,6.91.87,9.49.76,4.85,2.14,9.65,2.4,14.6l-20,8.64c6.03-4.73,11.9-9.73,17.96-14.42-2.4-.39-4.9-.18-7.33-.21-.6,0-1.23-.42-1.44-.42l-7.31-18.37c-2.07,2.08-13.21,5.87-14.23,7.52-.19.3.3,4.09.22,5.21-.14,1.83-.95,3.45-1.24,5.23-.08-.06-1.16.43-1.86.44-7.72.14-15.49,0-23.21-.02Z"/>
  <path class="st4" d="M50.97,671c9.14.5,19.89,1.75,28.99,2.97,4.69.63,11.31,1.52,15.8,2.58,6.63,1.56,18.22,11.34,23.73,15.96,4.89,4.11,9.58,9.07,14.42,13.16,3.23,2.73,7.41,4.97,10.23,8.37-10.22.03-20.46-.04-30.69.02-3.15.45-9.82,6.42-11.81,6.99-1.21.35-2.76-.07-4.06.11-.31.04-2.95.8-3.07.9-.18.15-.18.95-.49,1.37-4.55,6.07-3.48,13.77-5.45,21.1-.36,1.34-.83,2.85-1.25,4.18-1.63,5.11-4.04,11.16-6.33,16.03-1.68,3.58-2.44,5.56-5.34,8.03-3.06,2.61.41,8.94-5.56,7.58-2.46-.56-3.56-3.9-5.65-4.39-1.07-.25-4.01.11-5.35-.07-2.9-.38-7.72-7.91-8.05-10.78-.47-3.95,6.5,1.21,7.58,1.65.81.34,5.78,1.94,6.4,1.99,2.28.16,6.02-1.2,4.36-3.97-4.66-5-9.39-9.93-13.34-15.51,3.56-4.87,7.28-9.61,10.98-14.37.51-.66.85-1.78,1.08-2.05.04-.05.88-.14,1.27-.6,3.79-4.51,6.63-12.72,8.76-18.21.47-1.2,1.43-3.81,2.29-4.6.92-.85,4.96-2.35,6.27-2.5,8.17-.94,16.11,3.67,24.02,4.59.71-.62-4.9-5.06-5.44-5.63-2.32-2.41-4.6-4.7-6.94-7.05-1.85-1.86-1.04-3.38-4.55-3.22-2.11.1-3.55-.04-5.42-.01-12.35.19-27.63,2.65-39.9,5.05-5.23,1.02-4.75,1.5-8.9,3.85-4.37,2.46-2.73-1.8-3.66-2.58-2.03-1.7-4.42,6.1-7.29,6.29-4.21.28-3.6-5.51-4.88-8.12-1.11-2.27-5.1-4.8-6.77-7.85-.64-1.16-3.1-6.75-3.41-7.88-.25-.95-.5-1.89.45-2.52,3.29.78,5.05,4.06,7.9,5.86.88.55,9.05,4.53,9.41,4.16l-7.73-16.29c-.23-1.07-1.52-3.26-.86-4.2.29-.41,6.45-.19,7.53-.83,6.88.57,13.8.05,20.7.44Z"/>
  <path class="st3" d="M48.47,700.67c12.27-2.4,27.55-4.86,39.9-5.05,1.87-.03,3.32.11,5.42.01,3.51-.16,2.7,1.35,4.55,3.22,2.34,2.36,4.63,4.64,6.94,7.05.54.57,6.15,5,5.44,5.63-7.91-.92-15.86-5.54-24.02-4.59-1.32.15-5.35,1.65-6.27,2.5-.86.8-1.82,3.4-2.29,4.6-10.15.18-20.35-.25-30.5,0l.84-13.37Z"/>
  <path class="st1" d="M47.63,714.04c10.15-.25,20.35.18,30.5,0-2.13,5.49-4.97,13.7-8.76,18.21-.38.45-1.22.54-1.27.6l-20.28-16.28c-.81-.76-.35-2.2-2.28-2.11-.03-.75,1.56-.4,2.09-.41Z"/>
  <path class="st3" d="M88.16,749.14c-.1-.14-.63-.26-.84-.42.42-1.33.89-2.84,1.25-4.18,1.21,1.31-.54,3.08-.42,4.6Z"/>
  <path class="st3" d="M188.43,713.62c.3-1.77,1.11-3.4,1.24-5.23.08-1.12-.41-4.9-.22-5.21,1.02-1.65,12.15-5.44,14.23-7.52l7.31,18.37c-6.98-.03-14.97,1.36-21.97.45-.94-.12-.51-.81-.59-.87Z"/>
</svg>